STARTFONT 2.1
COMMENT
COMMENT  Copyright (c) 2001, Poonlap Veerathanabutr
COMMENT
COMMENT  License to copy and distribute for both commercial and
COMMENT  non-commercial use is herby granted, provided this notice
COMMENT  is preserved.
COMMENT
COMMENT  Poonlap.Veerathanabutr@Japan.Sun.COM
COMMENT  Modified from thai8i.bdf. Emacs/Mule can use this font.
COMMENT
COMMENT  Produced with bdfedit, a tcl/tk font editing program
COMMENT  written by Thomas A. Fine
FONT -nectec-emacs-medium-i-normal--18-180-72-72-c-90-tis620-0
SIZE 18 72 72
FONTBOUNDINGBOX 18 18 -9 -3
STARTPROPERTIES 11
FOUNDRY "nectec"
FAMILY_NAME "emacs"
WEIGHT_NAME "medium"
SLANT "i"
SETWIDTH_NAME "normal"
SPACING "c"
CHARSET_REGISTRY "ISO-8859"
CHARSET_ENCODING "1"
COPYRIGHT "Copyright (C) 1999,2000 NECTEC, released under GPL license"
FONT_ASCENT  15
FONT_DESCENT 3
ENDPROPERTIES
CHARS 182
STARTCHAR SPACE
ENCODING 32
SWIDTH 500 0
DWIDTH 9 0
BBX 0 0 0 0
BITMAP
ENDCHAR
STARTCHAR EXCLAMATION
ENCODING 33
SWIDTH 500 0
DWIDTH 9 0
BBX 4 10 3 1
BITMAP
10
20
20
20
40
40
40
00
80
80
ENDCHAR
STARTCHAR QUOTATION
ENCODING 34
SWIDTH 500 0
DWIDTH 9 0
BBX 6 4 2 7
BITMAP
6c
6c
48
90
ENDCHAR
STARTCHAR NUMBER
ENCODING 35
SWIDTH 500 0
DWIDTH 9 0
BBX 8 10 1 0
BITMAP
05
05
0a
7f
14
28
fe
50
a0
a0
ENDCHAR
STARTCHAR DOLLAR
ENCODING 36
SWIDTH 500 0
DWIDTH 9 0
BBX 7 10 1 0
BITMAP
04
3c
4a
48
30
18
14
a4
78
20
ENDCHAR
STARTCHAR PERCENT
ENCODING 37
SWIDTH 500 0
DWIDTH 9 0
BBX 9 10 0 0
BITMAP
1c00
2480
2500
3a00
0c00
1800
3e00
5200
9200
1c00
ENDCHAR
STARTCHAR AMPERSAND
ENCODING 38
SWIDTH 500 0
DWIDTH 9 0
BBX 8 10 0 0
BITMAP
0e
12
12
0c
10
29
46
84
8c
72
ENDCHAR
STARTCHAR c27
ENCODING 39
SWIDTH 500 0
DWIDTH 9 0
BBX 3 4 2 7
BITMAP
60
60
40
80
ENDCHAR
STARTCHAR LEFT
ENCODING 40
SWIDTH 500 0
DWIDTH 9 0
BBX 6 12 2 -1
BITMAP
04
08
10
20
40
40
80
80
80
80
40
20
ENDCHAR
STARTCHAR RIGHT
ENCODING 41
SWIDTH 500 0
DWIDTH 9 0
BBX 6 12 1 -1
BITMAP
10
08
04
04
04
04
08
08
10
20
40
80
ENDCHAR
STARTCHAR ASTERISK
ENCODING 42
SWIDTH 500 0
DWIDTH 9 0
BBX 7 7 1 1
BITMAP
08
4a
54
38
54
a4
20
ENDCHAR
STARTCHAR PLUS
ENCODING 43
SWIDTH 500 0
DWIDTH 9 0
BBX 7 7 1 1
BITMAP
08
08
10
fe
10
20
20
ENDCHAR
STARTCHAR COMMA
ENCODING 44
SWIDTH 500 0
DWIDTH 9 0
BBX 3 4 1 -2
BITMAP
60
60
40
80
ENDCHAR
STARTCHAR HYPHEN,
ENCODING 45
SWIDTH 500 0
DWIDTH 9 0
BBX 7 1 1 4
BITMAP
fe
ENDCHAR
STARTCHAR FULL
ENCODING 46
SWIDTH 500 0
DWIDTH 9 0
BBX 2 2 2 0
BITMAP
c0
c0
ENDCHAR
STARTCHAR c2f
ENCODING 47
SWIDTH 500 0
DWIDTH 9 0
BBX 9 11 0 -1
BITMAP
0080
0080
0100
0200
0400
0800
1000
2000
4000
8000
8000
ENDCHAR
STARTCHAR DIGIT
ENCODING 48
SWIDTH 500 0
DWIDTH 9 0
BBX 8 10 1 0
BITMAP
0e
11
21
41
41
82
82
84
88
70
ENDCHAR
STARTCHAR DIGIT
ENCODING 49
SWIDTH 500 0
DWIDTH 9 0
BBX 6 10 1 0
BITMAP
04
18
28
08
10
10
10
20
20
f8
ENDCHAR
STARTCHAR DIGIT
ENCODING 50
SWIDTH 500 0
DWIDTH 9 0
BBX 8 10 1 0
BITMAP
1e
21
41
41
06
08
30
40
80
fc
ENDCHAR
STARTCHAR DIGIT
ENCODING 51
SWIDTH 500 0
DWIDTH 9 0
BBX 8 10 1 0
BITMAP
1e
21
41
02
1c
04
02
02
84
78
ENDCHAR
STARTCHAR DIGIT
ENCODING 52
SWIDTH 500 0
DWIDTH 9 0
BBX 7 10 1 0
BITMAP
02
06
0a
12
24
44
84
fe
08
08
ENDCHAR
STARTCHAR DIGIT
ENCODING 53
SWIDTH 500 0
DWIDTH 9 0
BBX 8 10 1 0
BITMAP
1f
20
20
3c
42
01
01
02
84
78
ENDCHAR
STARTCHAR DIGIT
ENCODING 54
SWIDTH 500 0
DWIDTH 9 0
BBX 8 10 1 0
BITMAP
03
0c
10
20
7c
42
82
82
84
78
ENDCHAR
STARTCHAR DIGIT
ENCODING 55
SWIDTH 500 0
DWIDTH 9 0
BBX 7 10 2 0
BITMAP
fe
04
08
10
20
40
40
80
80
80
ENDCHAR
STARTCHAR DIGIT
ENCODING 56
SWIDTH 500 0
DWIDTH 9 0
BBX 9 10 0 0
BITMAP
0f00
1080
1080
0f00
3200
4100
8100
8100
8200
7c00
ENDCHAR
STARTCHAR DIGIT
ENCODING 57
SWIDTH 500 0
DWIDTH 9 0
BBX 8 10 1 0
BITMAP
1e
21
41
41
42
3e
04
08
10
e0
ENDCHAR
STARTCHAR COLON
ENCODING 58
SWIDTH 500 0
DWIDTH 9 0
BBX 4 7 2 0
BITMAP
30
30
00
00
00
c0
c0
ENDCHAR
STARTCHAR SEMICOLON
ENCODING 59
SWIDTH 500 0
DWIDTH 9 0
BBX 5 9 1 -2
BITMAP
18
18
00
00
00
60
60
40
80
ENDCHAR
STARTCHAR LESS-THAN
ENCODING 60
SWIDTH 500 0
DWIDTH 9 0
BBX 6 10 2 0
BITMAP
04
08
10
20
40
80
80
40
20
10
ENDCHAR
STARTCHAR EQUALS
ENCODING 61
SWIDTH 500 0
DWIDTH 9 0
BBX 9 5 0 2
BITMAP
3f80
0000
0000
0000
fe00
ENDCHAR
STARTCHAR GREATER-THAN
ENCODING 62
SWIDTH 500 0
DWIDTH 9 0
BBX 6 10 1 0
BITMAP
20
10
08
04
04
08
10
20
40
80
ENDCHAR
STARTCHAR QUESTION
ENCODING 63
SWIDTH 500 0
DWIDTH 9 0
BBX 7 10 1 0
BITMAP
3c
42
82
04
08
10
20
20
00
20
ENDCHAR
STARTCHAR COMMERCIAL
ENCODING 64
SWIDTH 500 0
DWIDTH 9 0
BBX 8 10 1 0
BITMAP
1e
21
41
5d
a2
a2
a2
bc
80
7c
ENDCHAR
STARTCHAR CAPITAL
ENCODING 65
SWIDTH 500 0
DWIDTH 9 0
BBX 8 10 1 0
BITMAP
0e
11
21
21
41
7f
42
82
84
84
ENDCHAR
STARTCHAR CAPITAL
ENCODING 66
SWIDTH 500 0
DWIDTH 9 0
BBX 8 10 1 0
BITMAP
1e
21
21
22
7c
42
42
82
84
f8
ENDCHAR
STARTCHAR CAPITAL
ENCODING 67
SWIDTH 500 0
DWIDTH 9 0
BBX 8 10 1 0
BITMAP
1e
21
41
40
40
80
80
82
44
38
ENDCHAR
STARTCHAR CAPITAL
ENCODING 68
SWIDTH 500 0
DWIDTH 9 0
BBX 9 10 0 0
BITMAP
1e00
1100
2080
2080
2080
4100
4100
8200
8400
f800
ENDCHAR
STARTCHAR CAPITAL
ENCODING 69
SWIDTH 500 0
DWIDTH 9 0
BBX 9 10 0 0
BITMAP
1f80
2000
2000
2000
7c00
4000
4000
8000
8000
fc00
ENDCHAR
STARTCHAR CAPITAL
ENCODING 70
SWIDTH 500 0
DWIDTH 9 0
BBX 9 10 0 0
BITMAP
1f80
2000
2000
2000
7c00
4000
4000
8000
8000
8000
ENDCHAR
STARTCHAR CAPITAL
ENCODING 71
SWIDTH 500 0
DWIDTH 9 0
BBX 8 10 1 0
BITMAP
1e
21
41
40
40
8e
82
82
4c
34
ENDCHAR
STARTCHAR CAPITAL
ENCODING 72
SWIDTH 500 0
DWIDTH 9 0
BBX 9 10 0 0
BITMAP
1080
1080
2100
2100
7f00
4200
4200
8400
8400
8400
ENDCHAR
STARTCHAR CAPITAL
ENCODING 73
SWIDTH 500 0
DWIDTH 9 0
BBX 7 10 1 0
BITMAP
3e
08
08
08
10
10
20
20
20
f8
ENDCHAR
STARTCHAR CAPITAL
ENCODING 74
SWIDTH 500 0
DWIDTH 9 0
BBX 9 10 0 0
BITMAP
1f80
0400
0400
0400
0800
0800
0800
0800
9000
6000
ENDCHAR
STARTCHAR CAPITAL
ENCODING 75
SWIDTH 500 0
DWIDTH 9 0
BBX 8 10 0 0
BITMAP
11
12
24
28
30
70
50
48
84
84
ENDCHAR
STARTCHAR CAPITAL
ENCODING 76
SWIDTH 500 0
DWIDTH 9 0
BBX 7 10 1 0
BITMAP
10
20
20
20
40
40
40
80
80
fe
ENDCHAR
STARTCHAR CAPITAL
ENCODING 77
SWIDTH 500 0
DWIDTH 9 0
BBX 9 10 0 0
BITMAP
2080
2180
2180
3280
5500
5900
5100
8200
8200
8200
ENDCHAR
STARTCHAR CAPITAL
ENCODING 78
SWIDTH 500 0
DWIDTH 9 0
BBX 9 10 0 0
BITMAP
2080
2080
3080
5100
4900
4900
4500
8600
8200
8200
ENDCHAR
STARTCHAR CAPITAL
ENCODING 79
SWIDTH 500 0
DWIDTH 9 0
BBX 8 10 1 0
BITMAP
0e
11
21
41
41
82
82
84
88
70
ENDCHAR
STARTCHAR CAPITAL
ENCODING 80
SWIDTH 500 0
DWIDTH 9 0
BBX 8 10 1 0
BITMAP
1c
22
21
21
42
7c
40
80
80
80
ENDCHAR
STARTCHAR CAPITAL
ENCODING 81
SWIDTH 500 0
DWIDTH 9 0
BBX 8 10 1 0
BITMAP
0e
11
21
41
41
82
9a
ac
a8
74
ENDCHAR
STARTCHAR CAPITAL
ENCODING 82
SWIDTH 500 0
DWIDTH 9 0
BBX 8 10 1 0
BITMAP
1c
22
21
21
42
7c
50
88
84
82
ENDCHAR
STARTCHAR CAPITAL
ENCODING 83
SWIDTH 500 0
DWIDTH 9 0
BBX 8 10 1 0
BITMAP
1e
21
20
10
0c
02
01
81
42
3c
ENDCHAR
STARTCHAR CAPITAL
ENCODING 84
SWIDTH 500 0
DWIDTH 9 0
BBX 7 10 1 0
BITMAP
fe
10
10
10
20
20
20
40
40
40
ENDCHAR
STARTCHAR CAPITAL
ENCODING 85
SWIDTH 500 0
DWIDTH 9 0
BBX 9 10 0 0
BITMAP
2080
2080
4080
4100
4100
4100
8200
8200
8400
7800
ENDCHAR
STARTCHAR CAPITAL
ENCODING 86
SWIDTH 500 0
DWIDTH 9 0
BBX 8 10 1 0
BITMAP
81
82
82
84
88
48
50
60
40
40
ENDCHAR
STARTCHAR CAPITAL
ENCODING 87
SWIDTH 500 0
DWIDTH 9 0
BBX 9 10 0 0
BITMAP
2080
2080
2080
4900
4900
5900
a600
c600
c400
8400
ENDCHAR
STARTCHAR CAPITAL
ENCODING 88
SWIDTH 500 0
DWIDTH 9 0
BBX 9 10 0 0
BITMAP
2080
2100
2100
1200
1c00
1800
1800
2400
4400
8400
ENDCHAR
STARTCHAR CAPITAL
ENCODING 89
SWIDTH 500 0
DWIDTH 9 0
BBX 8 10 1 0
BITMAP
81
82
44
48
30
20
20
40
40
40
ENDCHAR
STARTCHAR CAPITAL
ENCODING 90
SWIDTH 500 0
DWIDTH 9 0
BBX 9 10 0 0
BITMAP
1f80
0100
0200
0400
0800
1000
2000
4000
8000
fc00
ENDCHAR
STARTCHAR LEFT
ENCODING 91
SWIDTH 500 0
DWIDTH 9 0
BBX 6 12 2 -1
BITMAP
1c
10
10
20
20
20
40
40
40
80
80
e0
ENDCHAR
STARTCHAR REVERSE
ENCODING 92
SWIDTH 500 0
DWIDTH 9 0
BBX 4 12 2 -1
BITMAP
80
80
80
40
40
40
20
20
20
10
10
10
ENDCHAR
STARTCHAR RIGHT
ENCODING 93
SWIDTH 500 0
DWIDTH 9 0
BBX 6 12 1 -1
BITMAP
1c
04
04
08
08
08
10
10
10
20
20
e0
ENDCHAR
STARTCHAR CIRCUMFLEX
ENCODING 94
SWIDTH 500 0
DWIDTH 9 0
BBX 4 3 3 9
BITMAP
30
50
90
ENDCHAR
STARTCHAR LOW
ENCODING 95
SWIDTH 500 0
DWIDTH 9 0
BBX 6 1 1 -1
BITMAP
fc
ENDCHAR
STARTCHAR GRAVE
ENCODING 96
SWIDTH 500 0
DWIDTH 9 0
BBX 3 4 4 7
BITMAP
60
60
80
80
ENDCHAR
STARTCHAR SMALL
ENCODING 97
SWIDTH 500 0
DWIDTH 9 0
BBX 8 7 1 0
BITMAP
3e
41
01
3f
42
86
7a
ENDCHAR
STARTCHAR SMALL
ENCODING 98
SWIDTH 500 0
DWIDTH 9 0
BBX 8 10 1 0
BITMAP
10
10
20
2c
32
41
41
42
c4
b8
ENDCHAR
STARTCHAR SMALL
ENCODING 99
SWIDTH 500 0
DWIDTH 9 0
BBX 7 7 1 0
BITMAP
3c
42
40
80
80
84
78
ENDCHAR
STARTCHAR SMALL
ENCODING 100
SWIDTH 500 0
DWIDTH 9 0
BBX 9 10 0 0
BITMAP
0080
0080
0100
1d00
2200
4200
8200
8400
8c00
7400
ENDCHAR
STARTCHAR SMALL
ENCODING 101
SWIDTH 500 0
DWIDTH 9 0
BBX 7 7 1 0
BITMAP
3c
42
82
fc
80
84
78
ENDCHAR
STARTCHAR SMALL
ENCODING 102
SWIDTH 500 0
DWIDTH 9 0
BBX 8 10 1 0
BITMAP
06
09
10
10
fc
20
20
40
40
40
ENDCHAR
STARTCHAR SMALL
ENCODING 103
SWIDTH 500 0
DWIDTH 9 0
BBX 9 11 0 -3
BITMAP
0080
1e80
2300
4100
2200
3c00
4000
7c00
8200
8400
7800
ENDCHAR
STARTCHAR SMALL
ENCODING 104
SWIDTH 500 0
DWIDTH 9 0
BBX 7 10 1 0
BITMAP
10
10
20
2c
72
42
42
82
84
84
ENDCHAR
STARTCHAR SMALL
ENCODING 105
SWIDTH 500 0
DWIDTH 9 0
BBX 4 10 3 0
BITMAP
10
10
00
20
e0
40
40
80
90
e0
ENDCHAR
STARTCHAR SMALL
ENCODING 106
SWIDTH 500 0
DWIDTH 9 0
BBX 8 13 0 -3
BITMAP
01
01
00
0e
04
04
04
08
08
08
10
90
60
ENDCHAR
STARTCHAR SMALL
ENCODING 107
SWIDTH 500 0
DWIDTH 9 0
BBX 6 10 1 0
BITMAP
10
10
20
24
48
50
70
90
88
84
ENDCHAR
STARTCHAR SMALL
ENCODING 108
SWIDTH 500 0
DWIDTH 9 0
BBX 4 10 3 0
BITMAP
30
10
20
20
40
40
40
80
90
e0
ENDCHAR
STARTCHAR SMALL
ENCODING 109
SWIDTH 500 0
DWIDTH 9 0
BBX 8 7 1 0
BITMAP
7e
49
49
49
92
92
92
ENDCHAR
STARTCHAR SMALL
ENCODING 110
SWIDTH 500 0
DWIDTH 9 0
BBX 7 7 1 0
BITMAP
5c
62
42
42
84
84
84
ENDCHAR
STARTCHAR SMALL
ENCODING 111
SWIDTH 500 0
DWIDTH 9 0
BBX 7 7 1 0
BITMAP
3c
42
42
82
84
84
78
ENDCHAR
STARTCHAR c70
ENCODING 112
SWIDTH 500 0
DWIDTH 9 0
BBX 8 10 1 -3
BITMAP
16
19
21
21
21
62
5c
40
80
80
ENDCHAR
STARTCHAR c71
ENCODING 113
SWIDTH 500 0
DWIDTH 9 0
BBX 8 10 0 -3
BITMAP
1d
27
42
82
86
8c
74
04
08
08
ENDCHAR
STARTCHAR SMALL
ENCODING 114
SWIDTH 500 0
DWIDTH 9 0
BBX 7 7 1 0
BITMAP
2c
52
60
40
80
80
80
ENDCHAR
STARTCHAR SMALL
ENCODING 115
SWIDTH 500 0
DWIDTH 9 0
BBX 8 7 1 0
BITMAP
1e
21
40
3c
02
84
78
ENDCHAR
STARTCHAR SMALL
ENCODING 116
SWIDTH 500 0
DWIDTH 9 0
BBX 5 10 2 0
BITMAP
10
20
20
f8
40
40
40
80
88
70
ENDCHAR
STARTCHAR SMALL
ENCODING 117
SWIDTH 500 0
DWIDTH 9 0
BBX 8 7 1 0
BITMAP
21
42
42
42
84
8c
74
ENDCHAR
STARTCHAR SMALL
ENCODING 118
SWIDTH 500 0
DWIDTH 9 0
BBX 7 7 1 0
BITMAP
82
84
88
90
a0
c0
80
ENDCHAR
STARTCHAR SMALL
ENCODING 119
SWIDTH 500 0
DWIDTH 9 0
BBX 9 7 0 0
BITMAP
2080
2480
4900
4900
9200
9200
6c00
ENDCHAR
STARTCHAR SMALL
ENCODING 120
SWIDTH 500 0
DWIDTH 9 0
BBX 7 7 1 0
BITMAP
42
44
28
10
30
48
84
ENDCHAR
STARTCHAR SMALL
ENCODING 121
SWIDTH 500 0
DWIDTH 9 0
BBX 8 10 1 -3
BITMAP
21
41
42
82
84
7c
04
08
88
70
ENDCHAR
STARTCHAR SMALL
ENCODING 122
SWIDTH 500 0
DWIDTH 9 0
BBX 7 7 1 0
BITMAP
7e
04
08
10
20
40
fc
ENDCHAR
STARTCHAR LEFT
ENCODING 123
SWIDTH 500 0
DWIDTH 9 0
BBX 6 12 2 -1
BITMAP
0c
10
20
20
10
20
40
20
40
80
80
60
ENDCHAR
STARTCHAR VERTICAL
ENCODING 124
SWIDTH 500 0
DWIDTH 9 0
BBX 5 14 2 -2
BITMAP
08
08
08
10
10
10
20
20
20
40
40
40
80
80
ENDCHAR
STARTCHAR c7d
ENCODING 125
SWIDTH 500 0
DWIDTH 9 0
BBX 6 12 1 -1
BITMAP
18
04
04
08
10
08
10
20
10
10
20
c0
ENDCHAR
STARTCHAR TILDE
ENCODING 126
SWIDTH 500 0
DWIDTH 9 0
BBX 7 3 1 7
BITMAP
70
92
1c
ENDCHAR
STARTCHAR ca1
ENCODING 161
SWIDTH 500 0
DWIDTH 9 0
BBX 7 8 1 0
BITMAP
7c
22
44
44
44
88
88
88
ENDCHAR
STARTCHAR KHO_KHAI
ENCODING 162
SWIDTH 500 0
DWIDTH 9 0
BBX 7 8 1 0
BITMAP
12
2a
1c
14
64
88
88
70
ENDCHAR
STARTCHAR ca3
ENCODING 163
SWIDTH 500 0
DWIDTH 9 0
BBX 7 8 1 0
BITMAP
2a
56
2c
14
64
88
88
70
ENDCHAR
STARTCHAR KHO_KHWAI
ENCODING 164
SWIDTH 500 0
DWIDTH 9 0
BBX 8 8 0 0
BITMAP
1e
21
52
6a
52
84
84
84
ENDCHAR
STARTCHAR ca5
ENCODING 165
SWIDTH 500 0
DWIDTH 9 0
BBX 8 8 0 0
BITMAP
16
29
52
6a
52
84
84
84
ENDCHAR
STARTCHAR ca6
ENCODING 166
SWIDTH 500 0
DWIDTH 9 0
BBX 9 8 0 0
BITMAP
1480
2a80
1500
0900
1100
7200
aa00
6400
ENDCHAR
STARTCHAR NGO_NGU
ENCODING 167
SWIDTH 500 0
DWIDTH 9 0
BBX 7 8 1 0
BITMAP
04
0a
06
84
44
48
28
10
ENDCHAR
STARTCHAR CHO_CHAN
ENCODING 168
SWIDTH 500 0
DWIDTH 9 0
BBX 7 8 1 0
BITMAP
7c
82
24
54
3c
08
08
08
ENDCHAR
STARTCHAR CHO_CHING
ENCODING 169
SWIDTH 500 0
DWIDTH 9 0
BBX 7 8 1 0
BITMAP
7c
02
44
a4
64
9e
ee
88
ENDCHAR
STARTCHAR CHO_CHANG
ENCODING 170
SWIDTH 500 0
DWIDTH 9 0
BBX 8 9 1 0
BITMAP
01
11
2a
1c
14
64
88
88
70
ENDCHAR
STARTCHAR cab
ENCODING 171
SWIDTH 500 0
DWIDTH 9 0
BBX 8 9 1 0
BITMAP
01
29
56
2c
14
64
88
88
70
ENDCHAR
STARTCHAR CHO_CHOE
ENCODING 172
SWIDTH 500 0
DWIDTH 9 0
BBX 9 8 0 0
BITMAP
3c80
1280
2500
2500
2500
4a00
fe00
7a00
ENDCHAR
STARTCHAR YO_YING
ENCODING 173
SWIDTH 500 0
DWIDTH 9 0
BBX 9 11 0 -3
BITMAP
3c80
1280
2500
2500
2500
4a00
ea00
6e00
0000
0a00
0c00
ENDCHAR
STARTCHAR cae
ENCODING 174
SWIDTH 500 0
DWIDTH 9 0
BBX 9 11 0 -3
BITMAP
1f00
0880
1100
1100
1100
6200
a200
4a00
3c00
5c00
2400
ENDCHAR
STARTCHAR caf
ENCODING 175
SWIDTH 500 0
DWIDTH 9 0
BBX 9 11 0 -3
BITMAP
1f00
0880
1100
1100
1100
6200
a200
4a00
5400
bc00
5400
ENDCHAR
STARTCHAR cb0
ENCODING 176
SWIDTH 500 0
DWIDTH 9 0
BBX 9 11 0 -3
BITMAP
0f80
1000
7e00
0900
1500
1e00
0600
2400
cc00
d400
ac00
ENDCHAR
STARTCHAR THO_NANGMONTHO
ENCODING 177
SWIDTH 500 0
DWIDTH 9 0
BBX 7 8 1 0
BITMAP
54
aa
54
24
44
88
88
88
ENDCHAR
STARTCHAR THO_PHUTHAO
ENCODING 178
SWIDTH 500 0
DWIDTH 9 0
BBX 9 8 0 0
BITMAP
1480
2a80
4500
7500
5500
6a00
9e00
9a00
ENDCHAR
STARTCHAR NO_NEN
ENCODING 179
SWIDTH 500 0
DWIDTH 9 0
BBX 9 8 0 0
BITMAP
3c80
1280
2500
2500
2500
4a00
ef00
6b00
ENDCHAR
STARTCHAR cb4
ENCODING 180
SWIDTH 500 0
DWIDTH 9 0
BBX 8 8 0 0
BITMAP
1e
21
52
6a
52
64
84
84
ENDCHAR
STARTCHAR cb5
ENCODING 181
SWIDTH 500 0
DWIDTH 9 0
BBX 8 8 0 0
BITMAP
16
29
52
6a
52
64
84
84
ENDCHAR
STARTCHAR cb6
ENCODING 182
SWIDTH 500 0
DWIDTH 9 0
BBX 8 8 0 0
BITMAP
3e
11
22
22
42
c4
a4
44
ENDCHAR
STARTCHAR THO_THAHAN
ENCODING 183
SWIDTH 500 0
DWIDTH 9 0
BBX 8 8 0 0
BITMAP
46
a9
72
32
22
44
44
44
ENDCHAR
STARTCHAR THO_THONG
ENCODING 184
SWIDTH 500 0
DWIDTH 9 0
BBX 7 8 1 0
BITMAP
3e
40
f8
24
24
48
48
f0
ENDCHAR
STARTCHAR NO_NU
ENCODING 185
SWIDTH 500 0
DWIDTH 9 0
BBX 7 8 1 0
BITMAP
42
a2
64
44
44
b8
d4
9c
ENDCHAR
STARTCHAR BO_BAIMAI
ENCODING 186
SWIDTH 500 0
DWIDTH 9 0
BBX 8 8 0 0
BITMAP
41
a1
62
42
42
84
84
78
ENDCHAR
STARTCHAR cbb
ENCODING 187
SWIDTH 500 0
DWIDTH 9 0
BBX 9 11 0 0
BITMAP
0080
0080
0100
4100
a100
6200
4200
4200
8400
8400
7800
ENDCHAR
STARTCHAR PHO_PHUNG
ENCODING 188
SWIDTH 500 0
DWIDTH 9 0
BBX 8 8 0 0
BITMAP
21
51
a2
82
92
a4
a4
58
ENDCHAR
STARTCHAR cbd
ENCODING 189
SWIDTH 500 0
DWIDTH 9 0
BBX 9 11 0 0
BITMAP
0080
0080
0100
2100
5100
a200
8200
9200
a400
a400
5800
ENDCHAR
STARTCHAR PHO_PHAN
ENCODING 190
SWIDTH 500 0
DWIDTH 9 0
BBX 9 8 0 0
BITMAP
2080
5480
3900
2900
4900
9200
9200
6c00
ENDCHAR
STARTCHAR cbf
ENCODING 191
SWIDTH 500 0
DWIDTH 9 0
BBX 9 11 0 0
BITMAP
0080
0080
0100
4100
a900
7200
5200
9200
a400
a400
5800
ENDCHAR
STARTCHAR cc0
ENCODING 192
SWIDTH 500 0
DWIDTH 9 0
BBX 9 8 0 0
BITMAP
1f00
0880
1100
1100
1100
6200
a200
4200
ENDCHAR
STARTCHAR MO_MA
ENCODING 193
SWIDTH 500 0
DWIDTH 9 0
BBX 9 8 0 0
BITMAP
1080
2880
1900
0900
1100
7200
aa00
4400
ENDCHAR
STARTCHAR YO_YAK
ENCODING 194
SWIDTH 500 0
DWIDTH 9 0
BBX 8 8 0 0
BITMAP
19
35
4a
42
72
84
84
78
ENDCHAR
STARTCHAR cc3
ENCODING 195
SWIDTH 500 0
DWIDTH 9 0
BBX 7 8 1 0
BITMAP
3e
40
f8
04
04
18
28
10
ENDCHAR
STARTCHAR cc4
ENCODING 196
SWIDTH 500 0
DWIDTH 9 0
BBX 8 11 0 -3
BITMAP
3e
11
22
22
42
c4
a4
44
08
08
08
ENDCHAR
STARTCHAR LO_LING
ENCODING 197
SWIDTH 500 0
DWIDTH 9 0
BBX 8 8 0 0
BITMAP
1e
21
42
32
4a
c4
a4
44
ENDCHAR
STARTCHAR cc6
ENCODING 198
SWIDTH 500 0
DWIDTH 9 0
BBX 9 11 0 -3
BITMAP
1f00
0880
1100
1100
1100
6200
a200
4200
0400
0400
0400
ENDCHAR
STARTCHAR WO_WAEN
ENCODING 199
SWIDTH 500 0
DWIDTH 9 0
BBX 7 8 1 0
BITMAP
3c
42
84
04
04
18
28
10
ENDCHAR
STARTCHAR cc8
ENCODING 200
SWIDTH 500 0
DWIDTH 9 0
BBX 8 9 0 0
BITMAP
01
1d
23
52
6a
52
84
84
84
ENDCHAR
STARTCHAR cc9
ENCODING 201
SWIDTH 500 0
DWIDTH 9 0
BBX 8 8 0 0
BITMAP
41
a1
6a
57
4a
84
84
78
ENDCHAR
STARTCHAR cca
ENCODING 202
SWIDTH 500 0
DWIDTH 9 0
BBX 8 9 0 0
BITMAP
01
1d
23
42
32
4a
c4
a4
44
ENDCHAR
STARTCHAR HO_HIP
ENCODING 203
SWIDTH 500 0
DWIDTH 9 0
BBX 7 8 1 0
BITMAP
44
aa
7c
64
44
88
88
88
ENDCHAR
STARTCHAR LO_CHULA
ENCODING 204
SWIDTH 500 0
DWIDTH 9 0
BBX 9 9 0 0
BITMAP
0280
2500
5300
3100
2900
4900
9200
9200
6c00
ENDCHAR
STARTCHAR O_ANG
ENCODING 205
SWIDTH 500 0
DWIDTH 9 0
BBX 8 8 0 0
BITMAP
1e
21
42
22
52
e4
84
78
ENDCHAR
STARTCHAR cce
ENCODING 206
SWIDTH 500 0
DWIDTH 9 0
BBX 8 9 0 0
BITMAP
01
1d
27
1a
22
52
e4
84
78
ENDCHAR
STARTCHAR PAI_YAN_NOI
ENCODING 207
SWIDTH 500 0
DWIDTH 9 0
BBX 7 8 1 0
BITMAP
44
aa
74
04
04
08
08
10
ENDCHAR
STARTCHAR SARA_A
ENCODING 208
SWIDTH 500 0
DWIDTH 9 0
BBX 8 7 0 1
BITMAP
11
2a
1c
00
44
a8
70
ENDCHAR
STARTCHAR MAI_HAN-AKAT
ENCODING 209
SWIDTH 500 0
DWIDTH 9 0
BBX 5 3 4 9
BITMAP
40
a8
70
ENDCHAR
STARTCHAR SARA_AA
ENCODING 210
SWIDTH 500 0
DWIDTH 9 0
BBX 6 8 2 0
BITMAP
78
84
08
08
08
10
10
10
ENDCHAR
STARTCHAR SARA_AM
ENCODING 211
SWIDTH 500 0
DWIDTH 9 0
BBX 6 11 2 0
BITMAP
40
a0
40
78
84
08
08
08
10
10
10
ENDCHAR
STARTCHAR SARA_I
ENCODING 212
SWIDTH 500 0
DWIDTH 9 0
BBX 6 3 3 9
BITMAP
38
44
f8
ENDCHAR
STARTCHAR SARA_II
ENCODING 213
SWIDTH 500 0
DWIDTH 9 0
BBX 7 3 2 9
BITMAP
32
4a
fc
ENDCHAR
STARTCHAR SARA_UE
ENCODING 214
SWIDTH 500 0
DWIDTH 9 0
BBX 7 3 2 9
BITMAP
36
4a
fc
ENDCHAR
STARTCHAR SARA_UEE
ENCODING 215
SWIDTH 500 0
DWIDTH 9 0
BBX 7 3 2 9
BITMAP
2a
5a
fc
ENDCHAR
STARTCHAR SARA_U
ENCODING 216
SWIDTH 500 0
DWIDTH 9 0
BBX 3 3 2 -3
BITMAP
60
40
80
ENDCHAR
STARTCHAR SARA_UU
ENCODING 217
SWIDTH 500 0
DWIDTH 9 0
BBX 4 3 2 -3
BITMAP
50
50
e0
ENDCHAR
STARTCHAR PHINTHU
ENCODING 218
SWIDTH 500 0
DWIDTH 9 0
BBX 3 2 2 -2
BITMAP
60
c0
ENDCHAR
STARTCHAR BAHT
ENCODING 223
SWIDTH 500 0
DWIDTH 9 0
BBX 9 10 0 0
BITMAP
0200
1f00
1480
1500
3e00
2900
2900
5200
fc00
1000
ENDCHAR
STARTCHAR SARA_E
ENCODING 224
SWIDTH 500 0
DWIDTH 9 0
BBX 3 8 4 0
BITMAP
20
20
40
40
40
c0
a0
40
ENDCHAR
STARTCHAR SARA_AE
ENCODING 225
SWIDTH 500 0
DWIDTH 9 0
BBX 7 8 1 0
BITMAP
22
22
44
44
44
cc
aa
44
ENDCHAR
STARTCHAR SARA_O
ENCODING 226
SWIDTH 500 0
DWIDTH 9 0
BBX 6 12 3 0
BITMAP
3c
40
f0
20
20
20
40
40
40
c0
a0
40
ENDCHAR
STARTCHAR SARA_MAI_MUAN
ENCODING 227
SWIDTH 500 0
DWIDTH 9 0
BBX 6 12 2 0
BITMAP
38
44
c4
a8
48
08
10
10
10
30
28
10
ENDCHAR
STARTCHAR SARA_MAI_MALAI
ENCODING 228
SWIDTH 500 0
DWIDTH 9 0
BBX 5 12 4 0
BITMAP
98
b0
50
20
20
20
40
40
40
c0
a0
40
ENDCHAR
STARTCHAR LAK_KHANG_YAO
ENCODING 229
SWIDTH 500 0
DWIDTH 9 0
BBX 6 11 2 -3
BITMAP
78
84
08
08
08
10
10
10
20
20
20
ENDCHAR
STARTCHAR MAI_YAMOK
ENCODING 230
SWIDTH 500 0
DWIDTH 9 0
BBX 6 10 2 -2
BITMAP
58
a4
c8
08
08
10
10
10
20
40
ENDCHAR
STARTCHAR MAI_TAI_KHU
ENCODING 231
SWIDTH 500 0
DWIDTH 9 0
BBX 6 3 3 9
BITMAP
7c
a8
f0
ENDCHAR
STARTCHAR MAI_EK
ENCODING 232
SWIDTH 500 0
DWIDTH 9 0
BBX 1 2 8 12
BITMAP
80
80
ENDCHAR
STARTCHAR MAI_THO
ENCODING 233
SWIDTH 500 0
DWIDTH 9 0
BBX 4 3 5 12
BITMAP
40
50
e0
ENDCHAR
STARTCHAR MAI_TRI
ENCODING 234
SWIDTH 500 0
DWIDTH 9 0
BBX 5 3 4 12
BITMAP
50
a8
d0
ENDCHAR
STARTCHAR MAI_CHATTAWA
ENCODING 235
SWIDTH 500 0
DWIDTH 9 0
BBX 3 3 6 12
BITMAP
a0
40
a0
ENDCHAR
STARTCHAR THANTHAKHAT
ENCODING 236
SWIDTH 500 0
DWIDTH 9 0
BBX 2 3 7 12
BITMAP
40
c0
80
ENDCHAR
STARTCHAR NIKKHAHIT
ENCODING 237
SWIDTH 500 0
DWIDTH 9 0
BBX 3 3 5 9
BITMAP
60
a0
c0
ENDCHAR
STARTCHAR YAMAKKAN
ENCODING 238
SWIDTH 500 0
DWIDTH 9 0
BBX 5 3 4 9
BITMAP
38
50
a0
ENDCHAR
STARTCHAR FONGMAN
ENCODING 239
SWIDTH 500 0
DWIDTH 9 0
BBX 7 7 1 0
BITMAP
3c
42
5a
92
b4
84
78
ENDCHAR
STARTCHAR ZERO
ENCODING 240
SWIDTH 500 0
DWIDTH 9 0
BBX 7 7 1 0
BITMAP
3c
42
42
82
84
84
78
ENDCHAR
STARTCHAR ONE
ENCODING 241
SWIDTH 500 0
DWIDTH 9 0
BBX 7 7 1 0
BITMAP
3c
42
82
b2
d4
a4
48
ENDCHAR
STARTCHAR TWO
ENCODING 242
SWIDTH 500 0
DWIDTH 9 0
BBX 8 8 1 0
BITMAP
80
5a
6d
55
41
82
82
7c
ENDCHAR
STARTCHAR THREE
ENCODING 243
SWIDTH 500 0
DWIDTH 9 0
BBX 7 7 1 0
BITMAP
34
4a
8a
b2
d4
a4
48
ENDCHAR
STARTCHAR FOUR
ENCODING 244
SWIDTH 500 0
DWIDTH 9 0
BBX 8 8 1 0
BITMAP
01
1e
20
4c
54
98
90
78
ENDCHAR
STARTCHAR FIVE
ENCODING 245
SWIDTH 500 0
DWIDTH 9 0
BBX 8 9 1 0
BITMAP
0d
0d
1e
20
4c
54
98
90
78
ENDCHAR
STARTCHAR SIX
ENCODING 246
SWIDTH 500 0
DWIDTH 9 0
BBX 7 8 1 0
BITMAP
40
5c
62
82
32
54
64
78
ENDCHAR
STARTCHAR SEVEN
ENCODING 247
SWIDTH 500 0
DWIDTH 9 0
BBX 8 7 1 0
BITMAP
29
55
85
b5
da
aa
5c
ENDCHAR
STARTCHAR EIGHT
ENCODING 248
SWIDTH 500 0
DWIDTH 9 0
BBX 8 8 1 0
BITMAP
01
1e
20
44
4a
ac
a4
58
ENDCHAR
STARTCHAR NINE
ENCODING 249
SWIDTH 500 0
DWIDTH 9 0
BBX 8 8 1 0
BITMAP
01
36
58
58
88
c8
a8
48
ENDCHAR
STARTCHAR ANGKHANKHU
ENCODING 250
SWIDTH 500 0
DWIDTH 9 0
BBX 8 8 0 0
BITMAP
45
ad
7a
0a
0a
14
14
28
ENDCHAR
STARTCHAR KHOMUT
ENCODING 251
SWIDTH 500 0
DWIDTH 9 0
BBX 8 8 0 0
BITMAP
10
28
48
55
56
b0
a0
40
ENDCHAR
ENDFONT
